<?xml version="1.0" standalone="no"?>
<!DOCTYPE svg PUBLIC "-//W3C//DTD SVG 20010904//EN"
 "http://www.w3.org/TR/2001/REC-SVG-20010904/DTD/svg10.dtd">
<svg version="1.0" xmlns="http://www.w3.org/2000/svg"
 width="300.000000pt" height="300.000000pt" viewBox="0 0 300.000000 300.000000"
 preserveAspectRatio="xMidYMid meet">
<metadata>
Created by potrace 1.14, written by Peter Selinger 2001-2017
</metadata>
<g transform="translate(0.000000,300.000000) scale(0.100000,-0.100000)"
fill="#000000" stroke="none">
<path d="M630 2351 l0 -58 97 -18 c61 -12 103 -25 115 -37 17 -17 18 -51 18
-688 l0 -670 -24 -16 c-14 -8 -66 -23 -115 -32 l-91 -16 0 -56 0 -56 345 0
345 0 0 57 0 56 -37 7 c-129 21 -158 31 -169 59 -6 12 -10 157 -9 322 l0 300
401 1 402 2 0 -301 c0 -237 -3 -307 -14 -328 -12 -23 -25 -29 -104 -45 l-91
-18 3 -56 3 -55 338 0 c317 -1 337 0 338 17 1 23 1 76 0 86 -1 5 -46 16 -101
27 -78 14 -104 23 -115 39 -13 17 -15 120 -15 681 0 652 0 662 20 683 12 12
26 22 33 23 7 0 19 2 27 4 8 1 29 5 45 8 116 19 105 9 108 100 l1 32 -342 1
-342 2 0 -58 0 -57 86 -18 c128 -27 121 -8 122 -344 1 -213 -2 -281 -11 -282
-30 -3 -773 -5 -782 -2 -7 2 -10 104 -10 287 1 258 2 286 18 304 12 13 48 25
108 37 l89 17 0 59 0 58 -345 0 -345 -1 0 -57z"/>
</g>
</svg>
